# xmcd CD database file generated by LOLA_Freedb v0.9beta0
# 
# Track frame offsets:
#      150
#      18897
#      38646
#      55047
#      73125
#      91413
#      110121
#      128402
#      147088
#      161475
# 
# Disc length: 2390 seconds
# 
# Revision: 0 
# Processed by: cddbd v1.5.2PL0 Copyright (c) Steve Scherf et al.
# Submitted via: LOLA_Freedb v0.9beta0
# 
DISCID=7d09540a
DTITLE=Daniel Alan - Daniel Alan
DYEAR=2008
DGENRE=
TTITLE0=Daniel Alan - All Right
TTITLE1=Daniel Alan - End Of Your Rope
TTITLE2=Daniel Alan - I'm Not Running Down That Road
TTITLE3=Daniel Alan - Watching The Sun Go Down
TTITLE4=Daniel Alan - I Do Too
TTITLE5=Daniel Alan - Life Is Like A Race
TTITLE6=Daniel Alan - Sunday
TTITLE7=Daniel Alan - The Whiskey
TTITLE8=Daniel Alan - Why
TTITLE9=Daniel Alan - Take It Easy
EXTD=
EXTT0=
EXTT1=
EXTT2=
EXTT3=
EXTT4=
EXTT5=
EXTT6=
EXTT7=
EXTT8=
EXTT9=
PLAYORDER=
